<?xml version="1.0" encoding="utf-8" ?>
<svg height="1024" width="1024" xmlns="http://www.w3.org/2000/svg">
    <path d="M0 0L1024 0L1024 1024L0 1024L0 0Z" fill="#333233" />
    <path d="M244.07 687.699C245.069 687.618 246.039 687.57 247.042 687.605C259.857 688.053 267.196 692.939 275.79 702.102C281.651 697.943 288.252 695.593 295.418 695.041C311.5 693.801 323.716 701.169 335.494 711.21C338.849 708.055 342.883 705.289 347.557 704.697C353.997 703.883 359.006 707.143 363.805 710.927C368.507 706.543 373.68 702.738 379.502 699.975C393.266 693.442 408.867 693.082 423.123 698.223C439.265 704.126 452.477 716.077 459.965 731.547L532.604 731.548C540.564 731.554 548.523 731.956 556.476 731.838C549.163 729.789 540.592 729.903 533.613 727.219C531.727 726.493 530.129 725.372 529.411 723.41C527.335 717.731 532.528 708.624 534.846 703.382C550.525 716.485 568.496 709.305 571.289 710.928C570.935 711.753 570.787 712.156 570.721 713.074L571.76 713.569L573.095 712.866C577.14 714.906 580.963 718.21 584.889 720.611C588.912 720.366 594.014 719.926 597.429 722.453C600.528 724.746 600.948 727.964 601.53 731.496L662.695 731.476C662.084 726.281 662.4 721.131 662.831 715.935C669.718 716.51 676.508 717.456 683.249 715.298C687.718 713.868 691.67 708.844 696.272 708.801C701.646 708.751 708.565 714.972 714.684 716.027C720.536 717.035 726.564 714.638 732.409 714.699C733.298 715.442 733.455 715.753 733.771 716.918C734.459 719.45 734.455 722.437 732.963 724.691C729.815 729.446 721.71 730.476 716.48 731.722C725.81 732.57 735.33 732.298 744.695 732.318L787.03 732.38L921.765 732.477L965.209 732.558C969.492 732.581 974.761 731.798 978.907 732.295C980.281 732.459 980.703 733.023 981.51 734.057C981.721 735.423 981.924 736.004 981.445 737.324C979.691 738.432 888.252 737.608 879.25 737.584L314.35 737.438L142.819 737.359C112.03 737.336 81.1969 736.978 50.4136 737.427C46.7296 737.481 42.503 737.789 39.6122 735.121L39.7048 733.748C42.4414 731.488 45.077 731.88 48.4343 731.884C56.5249 721.438 66.5449 714.185 79.729 711.83C95.555 709.002 108.539 713.123 121.441 722.08C122.356 720.714 123.28 719.335 124.344 718.078C131.987 709.06 144.545 704.151 156.071 703.073C175.559 701.249 192.599 709.995 207.155 722.175C208.778 714.8 211.172 707.929 215.935 701.967C223.243 692.819 232.69 688.965 244.07 687.699Z"
        fill="#FCFCFB" />
    <path d="M241.012 693.621C244.83 693.301 249.024 693.17 252.81 693.854C263.651 695.812 268.845 702.475 274.665 711.012C280.754 704.737 287.887 700.693 296.754 700.275C312.55 699.532 324.791 708.916 335.873 718.962C336.366 718.332 336.877 717.716 337.405 717.115C340.321 713.76 344.13 710.674 348.766 710.484C355.192 710.221 360.468 715.197 364.733 719.375C367.007 716.411 369.442 713.723 372.311 711.321C382.195 703.047 395.142 699.481 407.906 700.629C426.232 702.279 439.168 712.617 450.461 726.325C451.757 727.998 452.907 729.804 454.099 731.553L211.421 731.564C211.476 723.331 213.344 715.255 217.949 708.348C223.469 700.07 231.375 695.499 241.012 693.621Z"
        fill="#333233" />
    <path d="M154.578 708.665C158.76 708.048 163.48 708.244 167.666 708.819C182.599 710.869 199.852 719.364 209.032 731.539L98.6433 731.619L56.0042 731.57C61.9798 724.823 69.301 720.099 78.0719 717.823C88.3191 715.164 101.117 715.945 110.382 721.371C114.299 723.666 117.536 726.982 121.478 729.285C121.633 729.375 121.79 729.462 121.946 729.55C132.704 716.853 137.312 711.296 154.578 708.665Z"
        fill="#333233" />
    <path d="M98.9863 579.969L923.367 580.233L923.363 586.293C898.312 586.854 873.125 586.344 848.063 586.336L668.265 586.358C670.27 593.655 672.288 600.029 676.109 606.617C674.386 609.351 673.743 611.382 672.855 614.424C671.964 617.473 671.753 615.268 669.938 616.249C670.142 616.692 670.334 617.14 670.553 617.575C671.154 618.769 671.958 619.999 672.325 621.299C673.732 626.288 674.164 632.231 675.072 637.39C677.102 648.882 679.201 660.361 681.369 671.827L683.673 684.042L684.072 683.394L684.617 682.537C685.168 681.658 685.533 680.927 686.5 680.41C687.26 680.004 687.069 680.166 688.027 680.449C688.389 681.018 688.447 681.047 688.695 681.779C690.167 686.125 687.642 691.842 685.637 695.621C687.907 694.423 690.138 693.128 692.382 691.881C693.766 696.028 694.813 700.162 695.754 704.43C693.826 706.039 691.9 707.676 689.873 709.16C681.065 715.612 671.822 715.36 661.517 713.827C659.046 709.972 656.384 704.535 655.462 700.028L655.864 699.512L657.183 700.016L657.511 699.689C656.643 698.875 655.959 698.484 655.612 697.316C656.46 696.98 656.564 697.072 657.105 696.278C656.539 695.867 655.586 695.247 655.17 694.687C654.319 693.542 651.499 681.949 650.74 679.386C646.859 666.596 642.885 653.836 638.817 641.105C634.991 628.777 631.864 615.031 625.368 603.774C624.604 605.905 628.071 613.601 628.923 615.98C621.65 626.172 613.969 636.067 605.897 645.639C593.853 660.171 578.132 675.753 571.769 693.782C570.315 694.522 568.9 695.286 567.497 696.121L567.544 696.577C569.85 696.406 571.739 695.752 573.883 694.966C573.238 698.825 573.029 704.21 569.741 706.784C565.458 710.137 559.102 709.77 554.007 708.954C545.802 707.64 537.77 704.295 532.778 697.389C535.231 693.699 537.619 690.064 539.679 686.133C540.885 687.208 542.164 688.667 543.709 689.129C543.433 687.445 542.48 686.173 541.585 684.759C557.163 648.187 571.966 617.139 597.667 586.297C577.055 585.898 556.365 586.225 535.743 586.219L413.092 586.281L99.013 586.215L98.9863 579.969Z"
        fill="#FCFCFB" />
    <path d="M629.825 326.027C636.718 321.345 648.175 315.985 656.623 317.634C661.764 318.638 667.249 321.517 670.148 326.008C675.689 334.594 672.125 351.09 669.903 360.291C667.505 370.219 663.795 379.733 660.942 389.521C659.994 392.774 660.123 396.603 658.881 399.652C658.252 401.198 657.142 402.11 655.826 403.068C656.629 403.984 657.352 404.218 658.455 404.658C657.274 408.094 655.809 409.387 652.958 411.519C640.073 411.752 627.189 406.598 615.238 402.283L617.123 394.813L616.715 395.296C616.305 395.791 615.949 396.281 615.595 396.815L614.713 396.539C614.29 397.379 613.944 398.329 613.615 399.209C612.986 400.889 612.882 401.75 613.619 403.383C614.332 403.866 615.312 404.407 615.888 405.036C618.372 407.748 615.457 418.907 615.153 422.337C614.726 427.145 615.811 430.305 618.904 433.921C579.899 434.592 540.77 433.794 501.753 433.716L299.467 433.708L165.077 433.635L123.81 433.648C115.665 433.657 107.402 433.947 99.2737 433.451C98.6579 431.64 98.9242 429.466 98.9605 427.57L591.74 427.897C597.286 400.007 607.637 344.85 629.825 326.027Z"
        fill="#FCFCFB" />
    <path d="M623.007 371.067C628.597 357.922 632.488 345.606 643.352 335.678C630.062 353.591 624.947 374.399 617.123 394.813L616.715 395.296C616.305 395.791 615.949 396.281 615.595 396.815L614.713 396.539C616.428 389.061 620.035 381.903 621.301 374.345C622.569 366.769 621.858 358.936 623.417 351.296C623.687 349.975 625.367 344.231 626.324 343.629C623.906 352.951 623.066 361.473 623.007 371.067Z"
        fill="#161616" />
    <path d="M153.906 461.343C179.766 458.629 202.941 477.366 205.703 503.221C208.465 529.076 189.771 552.285 163.921 555.096C138.003 557.914 114.719 539.16 111.949 513.236C109.18 487.313 127.977 464.063 153.906 461.343Z"
        fill="#FCFCFB" />
    <path d="M155.909 483.174C160.765 482.711 165.753 483.57 170.049 485.926C175.656 489.002 179.777 494.516 181.565 500.614C183.59 507.757 182.658 515.415 178.976 521.864C175.145 528.51 169.561 531.449 162.386 533.259C156.067 533.554 150.156 532.472 144.94 528.613C139.607 524.667 136.537 518.797 135.571 512.307C134.485 505.011 136.196 497.285 140.799 491.453C144.712 486.495 149.753 483.978 155.909 483.174Z"
        fill="#333233" />
    <path d="M738.643 462.295C764.251 458.106 788.406 475.471 792.594 501.079C796.782 526.687 779.417 550.841 753.809 555.029C728.202 559.216 704.048 541.852 699.86 516.245C695.672 490.637 713.036 466.483 738.643 462.295Z"
        fill="#FCFCFB" />
    <path d="M741.512 483.576C746.67 483.12 751.466 483.383 756.205 485.723C762.004 488.586 766.28 493.77 768.287 499.89C770.525 506.714 770.147 514.97 766.775 521.348C763.503 527.538 758.061 531.46 751.456 533.422C745.617 534.213 739.996 533.593 734.772 530.677C729.138 527.509 725.034 522.187 723.403 515.932C721.565 508.998 722.627 500.436 726.277 494.267C729.792 488.326 735.046 485.324 741.512 483.576Z"
        fill="#333233" />
    <path d="M306.691 462.949C328.12 462.853 356.007 459.657 372.677 475.972C381.647 484.751 385.642 496.852 385.616 509.233C385.591 521.535 380.805 532.24 372.204 540.906C353.833 557.297 329.408 554.116 306.634 554.025L306.691 462.949Z"
        fill="#FCFCFB" />
    <path d="M329.141 482.622C337.374 482.573 346.647 482.878 353.384 488.31C358.586 492.503 361.217 499.06 361.719 505.598C362.345 513.757 359.855 520.607 354.502 526.76C346.679 533.738 339.259 533.835 329.447 533.827C329.204 516.76 329.102 499.691 329.141 482.622Z"
        fill="#333233" />
    <path d="M830.518 509.09C833.532 502.85 848.373 465.004 851.185 463.131C851.875 462.672 852.337 462.405 853.141 462.663C854.616 463.136 855.425 464.426 856.17 465.7C858.32 469.38 859.746 473.735 861.453 477.653C865.958 487.992 870.261 498.599 875.325 508.673L886.339 463.052L909.017 462.967C905.249 475.336 902.018 487.859 898.471 500.293C893.984 518.239 889.344 536.146 884.552 554.012L872.528 553.975C865.902 537.972 859.051 522.01 853.086 505.746C845.681 521.49 839.359 537.808 832.676 553.871L820.991 553.907L796.755 463.114L819.236 462.972C823.16 478.304 826.921 493.678 830.518 509.09Z"
        fill="#FCFCFB" />
    <path d="M219.572 462.904C232.724 462.829 248.247 461.807 261.16 463.505C270.423 464.723 279.896 468.931 285.569 476.606C290.784 483.662 291.855 493.458 290.382 501.942C288.666 511.831 282.655 518.07 274.792 523.656C281.827 531.843 288.379 544.63 294.298 553.993L283.375 554.075L268.976 554.128C263.964 545.613 258.794 537.192 253.467 528.869C249.719 528.7 245.934 528.774 242.18 528.751L242.257 553.984L219.549 554.037L219.572 462.904Z"
        fill="#FCFCFB" />
    <path d="M242.178 483.087C248.474 483.032 258.312 481.669 263.414 485.786C266.252 488.076 267.696 492.003 267.991 495.55C268.317 499.478 266.887 502.829 264.399 505.763C258.222 510.618 249.543 509.529 242.165 509.468L242.178 483.087Z"
        fill="#333233" />
    <path d="M476.074 463.079C487.447 462.913 498.897 462.643 510.267 462.779C520.332 462.901 530.603 465.589 537.737 473.117C544.302 480.046 546.459 489.596 546.046 498.908C545.561 509.831 540.324 516.452 532.615 523.573C534.503 527.2 537.062 530.649 539.289 534.099L552.063 553.97L539.95 553.981L526.539 553.99C521.559 546.113 516.526 538.269 511.441 530.459C507.148 530.041 502.769 530.176 498.459 530.154C498.215 538.071 498.399 546.039 498.406 553.961L475.974 553.976L476.074 463.079Z"
        fill="#FCFCFB" />
    <path d="M498.514 482.423C504.667 482.368 512.987 481.457 518.269 484.999C520.995 486.828 522.43 489.644 523.003 492.815C523.98 498.226 522.779 502.807 519.579 507.212C514.022 512.004 505.382 510.943 498.482 511.033L498.514 482.423Z"
        fill="#333233" />
    <path d="M400.269 462.975C419.515 462.726 438.763 462.723 458.008 462.965L457.994 482.635L422.687 482.675L422.629 498.466L454.773 498.477C454.679 504.823 454.724 511.177 454.716 517.525L422.884 517.511L422.891 522.875L422.862 534.558L460.344 534.636L460.313 553.878L400.034 553.956L400.269 462.975Z"
        fill="#FCFCFB" />
    <path d="M563.456 462.868L621.398 462.955L621.461 483.015L586.503 483.052L586.455 504.486L618.036 504.426L618.045 520.125C618.052 521.113 617.968 522.02 617.874 523.002C615.701 524.525 591.323 523.711 586.519 523.711L586.507 553.757C578.76 553.615 570.996 553.683 563.246 553.651L563.456 462.868Z"
        fill="#FCFCFB" />
    <path d="M710.55 387.027C720.08 381.188 728.423 373.722 737.152 366.805C739.954 376.56 743.786 384.939 748.746 393.774C744.567 395.857 739.821 397.804 736.042 400.541C729.396 405.355 722.196 417.622 718.154 424.901C714.434 424.608 710.724 424.823 707.012 424.576C702.945 424.305 698.417 423.083 694.389 423.661C683.184 425.267 672.97 432.064 661.731 433.878C650.733 435.654 634.956 434.412 623.391 434.493C619.746 430.944 617.78 428.082 617.813 422.736C617.846 417.497 619.23 412.012 619.923 406.805C630.981 410.237 641.601 413.95 653.328 413.65C654.758 412.821 656.661 412.001 657.861 410.892C666.255 411.139 677.451 411.411 684.991 406.898C694.227 403.641 693.563 402.224 700.68 397.037C707.354 392.174 718.52 392.107 726.375 393.232C723.535 394.899 709.656 401.083 708.728 403.028C710.69 403.603 714.037 402.971 715.915 402.185C719.416 400.721 727.291 397.036 728.758 393.362C728.585 392.693 728.643 392.223 728.032 391.806C723.044 388.407 707.487 391.395 701.74 392.093L710.55 387.027Z"
        fill="#FCFCFB" />
    <path d="M638.394 462.986L660.864 462.985L660.947 533.892L696.379 533.997L696.368 553.918L638.151 554.01L638.394 462.986Z"
        fill="#FCFCFB" />
    <path d="M648.127 286.403C659.701 290.554 676.999 306.38 682.289 317.546C683.885 320.914 685.427 325.402 684.317 329.115C683.03 330.078 681.11 329.225 680.93 330.696C680.509 334.145 681.921 339.001 682.298 342.51C682.718 346.416 682.544 350.34 682.127 354.238C681.335 352.171 680.502 350.11 679.795 348.012C680.667 355.135 682.121 362.286 682.643 369.434C683.599 382.528 679.421 395.226 675.751 407.618C671.014 408.378 665.656 409.409 661.152 407.284C660.559 406.565 660.318 406.287 660.06 405.368C660.948 404.712 661.546 404.289 662.055 403.296C661.715 399.599 661.842 395.434 662.534 391.783C663.301 387.741 665.26 383.681 666.564 379.751C669.208 371.784 671.681 363.711 673.42 355.491C675.325 346.484 677.326 332.592 671.774 324.524C668.258 319.415 661.708 316.332 655.672 315.475C645.938 314.093 636.158 318.586 628.507 324.228C626.671 325.555 624.948 326.969 623.218 328.429C621.197 324.733 619.406 321.024 618.012 317.044C625.814 309.518 637.968 306.246 648.517 305.467C639.997 304.488 633.967 306.053 625.903 308.537C627.498 303.758 630.2 299.513 634.807 297.13C640.609 294.129 647.107 295.537 652.962 297.573C654.35 298.061 655.732 298.568 657.106 299.094C655.34 297.892 653.558 296.635 651.605 295.753C648.419 294.315 642.837 293.713 641.023 290.653C642.354 288.067 645.544 287.364 648.127 286.403Z"
        fill="#FCFCFB" />
    <path d="M700.374 247.184C709.962 247.27 719.52 250.039 726.887 256.343C735.14 263.406 736.684 271.307 737.543 281.568C745.366 286.353 752.959 291.502 760.299 296.998C756.472 298.992 752.656 300.195 748.462 301.14C741.026 299.371 734.44 294.464 728.134 290.337C723.55 287.404 718.636 284.877 714.124 281.909C709.816 282.11 705.63 283.363 701.393 283.437C701.174 281.795 701.098 279.309 700.399 277.822C699.601 276.124 697.76 275.018 695.991 274.548C685.689 271.809 685.625 284.267 680.971 286.885C680.432 286.888 679.846 287.112 679.354 286.893C677.365 286.009 674.697 280.367 672.744 278.53C672.601 278.396 672.453 278.265 672.307 278.133C671.556 272.919 671.785 267.968 672.714 262.803C680.615 254.384 688.602 248.485 700.374 247.184Z"
        fill="#FCFCFB" />
    <path d="M691.136 276.861C693.02 276.425 696.116 275.906 697.762 277.24C700.427 279.402 698.384 283.4 698.926 286.244L699.591 286.638C703.035 283.509 709.734 283.852 714.149 283.622C718.399 285.953 722.354 288.597 726.352 291.324C723.781 298.228 722.993 305.568 721.892 312.814C719.816 313.275 717.654 313.438 715.542 313.683C710.245 319.521 704.854 324.029 698.098 328.087C695.847 326.24 694.006 323.97 692.088 321.788C690.255 319.466 688.828 316.827 687.315 314.289C687.668 316.949 688.288 320.022 687.695 322.657L687.154 322.734C685.664 319.978 684.67 317.009 683.186 314.274C680.136 308.649 674.77 303.883 670.343 299.335C674.51 295.101 681.9 286.131 688.118 286.012C688.699 286.552 688.906 286.793 689.686 287.018C691.732 284.975 693.071 282.057 694.515 279.563C692.958 281.085 691.329 282.885 689.429 283.969C688.153 284.697 687.116 284.996 685.703 284.609L685.52 283.474C686.577 280.708 688.625 278.403 691.136 276.861Z"
        fill="#FCFCFB" />
    <path d="M692.121 427.054C696.816 426.244 702.65 427.389 707.529 427.474C720.144 427.609 732.76 427.668 745.375 427.651L922.503 427.572L922.45 433.68L902.375 433.669L753.569 433.658C726.142 433.647 698.487 432.839 671.095 433.924C678.046 431.46 685.056 429.17 692.121 427.054Z"
        fill="#FCFCFB" />
    <path d="M938.342 463.868C943.507 467.247 978.07 501.73 981.496 506.442C970.078 515.688 959.74 527.167 949.25 537.496L939.08 547.465C945.279 534.408 955.929 518.519 964.077 506.358L947.293 479.123C944.27 474.185 940.668 469.146 938.342 463.868Z"
        fill="#FCFCFB" />
    <path d="M81.2466 466.435C81.7427 469.56 60.3897 501.588 57.4607 506.894C61.0799 511.09 63.9602 516.272 66.9487 520.947C72.4405 529.538 78.047 538.126 82.9612 547.062C79.467 544.433 76.3499 541.244 73.1736 538.244C62.3715 527.494 51.4712 516.843 40.4741 506.293C53.6987 492.707 67.6488 479.658 81.2466 466.435Z"
        fill="#FCFCFB" />
    <path d="M683.75 405.406L683.007 405C683.029 404.675 683.011 404.346 683.072 404.027C683.389 402.375 685.52 399.875 686.591 398.527C695.785 386.957 702.915 385.986 715.593 380.545C713.51 382.334 711.213 383.822 709.489 385.987L708.135 386.284L708.372 385.693C698.296 389.51 689.68 396.409 683.75 405.406Z"
        fill="#FCFCFB" />
</svg>
